<svg width="711" height="305" viewBox="0 0 711 305" fill="none" xmlns="http://www.w3.org/2000/svg">
<path d="M625.868 156.705H707.918L705.037 169.608H678.229L660.943 244.392H632.507L649.794 169.608H622.987L625.868 156.705Z" fill="white"/>
<path d="M609.805 156.705C614.69 156.705 617.697 160.714 616.569 165.474L611.183 188.648H582.747L587.132 169.608H557.694L551.305 196.791H600.535C605.421 196.791 608.427 200.674 607.3 205.56L600.41 235.624C599.282 240.509 594.522 244.392 589.637 244.392H520.74C515.854 244.392 512.848 240.509 513.975 235.624L517.984 218.337H546.42L543.413 231.49H572.851L577.862 209.819H528.632C523.746 209.819 520.865 205.81 521.993 201.05L530.135 165.474C531.262 160.714 536.022 156.705 540.908 156.705H609.805Z" fill="white"/>
<path d="M510.604 156.705C515.364 156.705 518.495 160.714 517.368 165.474L501.208 235.624C500.081 240.509 495.196 244.392 490.436 244.392H421.163C416.277 244.392 413.271 240.509 414.398 235.624L430.558 165.474C431.685 160.714 436.445 156.705 441.331 156.705H510.604ZM473.65 231.49L487.93 169.608H458.117L443.836 231.49H473.65Z" fill="white"/>
<path d="M383.109 191.279L391.126 156.705H419.561L399.393 244.392H370.958L380.102 204.307H350.038L340.768 244.392H312.333L332.501 156.705H360.936L353.044 191.279H383.109Z" fill="white"/>
<path d="M628.957 59.573H711.007L708.126 72.4755H681.319L664.032 147.26H635.596L652.883 72.4755H626.076L628.957 59.573Z" fill="white"/>
<path d="M612.903 59.573C617.663 59.573 620.795 63.5816 619.668 68.3417L603.508 138.491C602.381 143.377 597.495 147.26 592.735 147.26H523.463C518.577 147.26 515.571 143.377 516.698 138.491L532.858 68.3417C533.985 63.5816 538.745 59.573 543.631 59.573H612.903ZM575.95 134.358L590.23 72.4755H560.416L546.136 134.358H575.95Z" fill="white"/>
<path d="M513.325 59.573C518.085 59.573 521.217 63.5816 520.09 68.3417L503.93 138.491C502.803 143.377 497.917 147.26 493.157 147.26H423.884C418.999 147.26 415.993 143.377 417.12 138.491L433.279 68.3417C434.407 63.5816 439.167 59.573 444.052 59.573H513.325ZM476.371 134.358L490.652 72.4755H460.838L446.558 134.358H476.371Z" fill="white"/>
<path d="M355.16 59.573H426.312L423.431 72.4755H380.715L375.704 94.1468H409.902L406.896 107.175H372.698L363.428 147.26H334.992L355.16 59.573Z" fill="white"/>
<circle cx="152.086" cy="152.083" r="152.082" fill="#DAFF01"/>
<path d="M63.6018 199.447H31.3154L68.4621 142.859H130.258L112.899 169.243H83.0431L63.6018 199.447Z" fill="black"/>
<path fill-rule="evenodd" clip-rule="evenodd" d="M93.458 104.323L76.0998 131.055H152.098L107.345 199.447H138.937L158.668 169.243H158.725L201.079 104.323H169.59L152.114 131.03L136.695 104.323H93.458Z" fill="black"/>
<path d="M272.857 104.323L230.503 169.243H230.446L210.715 199.447H179.123L223.907 131.055L218.304 139.615L241.415 104.323H272.857Z" fill="black"/>
<path d="M198.894 169.243H191.958H172.91L190.23 142.859H216.252L198.894 169.243Z" fill="black"/>
</svg>
