<svg width="60" height="60" viewBox="0 0 60 60" fill="none" xmlns="http://www.w3.org/2000/svg">
<rect x="1" y="1" width="58" height="58" rx="4" fill="#AAA8A1"/>
<rect x="1" y="1" width="58" height="58" rx="4" fill="url(#paint0_linear_275_578)"/>
<rect x="1" y="1" width="58" height="58" rx="4" fill="black" fill-opacity="0.05"/>
<rect x="1" y="1" width="58" height="58" rx="4" stroke="url(#paint1_linear_275_578)" stroke-width="2"/>
<path d="M29.4267 19.6666C28.1667 19.6666 27.5133 20.6 27.5133 23.4933V25.78H21.4933V23.5866C21.4933 17.4733 24.2933 14.44 29.4267 14.44C34.6067 14.44 37.3133 17.5666 37.3133 23.82V24.7066C37.3133 27.5066 36.66 29.56 35.12 32.1733L29.0533 42.4866H37.3133V47.6666H21.4467V43.6533L30.0333 29C30.92 27.5066 31.2933 26.1066 31.2933 24.66V23.4933C31.2933 20.6466 30.5467 19.6666 29.4267 19.6666Z" fill="white"/>
<defs>
<linearGradient id="paint0_linear_275_578" x1="0" y1="0" x2="64.065" y2="4.38442" gradientUnits="userSpaceOnUse">
<stop stop-color="#9DA5A6"/>
<stop offset="0.131663" stop-color="#D7D7D7"/>
<stop offset="0.656382" stop-color="#BBBBBB"/>
<stop offset="0.773121" stop-color="#898989"/>
<stop offset="0.834676" stop-color="#8C8C8C"/>
<stop offset="0.960427" stop-color="#D9D8D6"/>
<stop offset="1" stop-color="#777777"/>
</linearGradient>
<linearGradient id="paint1_linear_275_578" x1="30" y1="0" x2="30" y2="60" gradientUnits="userSpaceOnUse">
<stop stop-color="#AFAFAF" stop-opacity="0.59"/>
<stop offset="0.552083" stop-color="#9E9E9E" stop-opacity="0.705938"/>
<stop offset="1" stop-color="#929292" stop-opacity="0.8"/>
</linearGradient>
</defs>
</svg>
