<svg width="24" height="24" viewBox="0 0 24 24" fill="none" xmlns="http://www.w3.org/2000/svg">
<path d="M10.739 14.9143H12.6383C13.8136 14.9143 14.9409 14.4474 15.772 13.6163C16.6031 12.7852 17.07 11.6579 17.07 10.4826C17.07 9.30723 16.6031 8.18001 15.772 7.3489C14.9409 6.5178 13.8136 6.05088 12.6383 6.05088H8.20658V18.7129H10.739V14.9143ZM1.87558 0.986084H22.1348C22.4706 0.986084 22.7927 1.11949 23.0301 1.35695C23.2676 1.5944 23.401 1.91647 23.401 2.25228V22.5115C23.401 22.8473 23.2676 23.1694 23.0301 23.4068C22.7927 23.6443 22.4706 23.7777 22.1348 23.7777H1.87558C1.53976 23.7777 1.21769 23.6443 0.980236 23.4068C0.742778 23.1694 0.609375 22.8473 0.609375 22.5115V2.25228C0.609375 1.91647 0.742778 1.5944 0.980236 1.35695C1.21769 1.11949 1.53976 0.986084 1.87558 0.986084ZM10.739 8.58329H12.6383C13.142 8.58329 13.6251 8.78339 13.9813 9.13958C14.3375 9.49576 14.5376 9.97886 14.5376 10.4826C14.5376 10.9863 14.3375 11.4694 13.9813 11.8256C13.6251 12.1818 13.142 12.3819 12.6383 12.3819H10.739V8.58329Z" fill="#45AF31"/>
</svg>
