<svg width="19" height="24" viewBox="0 0 19 24" fill="none" xmlns="http://www.w3.org/2000/svg">
<path d="M0.322266 22.2584V14.6612C0.322266 13.9648 0.570441 13.3688 1.06679 12.8733C1.56314 12.3778 2.1591 12.1296 2.85467 12.1288H4.12087V9.59637H2.85467C2.15826 9.59637 1.5623 9.34862 1.06679 8.85311C0.571285 8.35761 0.32311 7.76123 0.322266 7.06397V3.26537C0.322266 2.56896 0.570441 1.973 1.06679 1.4775C1.56314 0.981991 2.1591 0.733815 2.85467 0.732971H15.5167C16.2131 0.732971 16.8095 0.981146 17.3058 1.4775C17.8022 1.97385 18.0499 2.56981 18.0491 3.26537V7.06397C18.0491 7.76038 17.8013 8.35676 17.3058 8.85311C16.8103 9.34946 16.2139 9.59721 15.5167 9.59637H14.2505V12.1288H15.5167C16.2131 12.1288 16.8095 12.3769 17.3058 12.8733C17.8022 13.3696 18.0499 13.9656 18.0491 14.6612V22.2584C18.0491 22.6171 17.9275 22.9181 17.6844 23.1612C17.4413 23.4043 17.1408 23.5254 16.7829 23.5246C16.425 23.5237 16.1244 23.4022 15.8813 23.1599C15.6382 22.9176 15.5167 22.6171 15.5167 22.2584V19.726H2.85467V22.2584C2.85467 22.6171 2.73311 22.9181 2.49 23.1612C2.24689 23.4043 1.94638 23.5254 1.58847 23.5246C1.23055 23.5237 0.930042 23.4022 0.686931 23.1599C0.443821 22.9176 0.322266 22.6171 0.322266 22.2584ZM6.65327 12.1288H11.7181V9.59637H6.65327V12.1288Z" fill="#45AF31"/>
</svg>
