<svg width="21" height="24" viewBox="0 0 21 24" fill="none" xmlns="http://www.w3.org/2000/svg">
<path fill-rule="evenodd" clip-rule="evenodd" d="M12.1245 0.775514C12.7002 0.893445 13.1388 1.21964 13.4139 1.73443C13.5411 1.97249 13.559 2.11349 13.5872 3.1L13.6186 4.2001L14.0115 4.21883L14.4044 4.2375V5.5861V6.93464H14.9644H15.5245L18.0725 9.07185C19.4739 10.2473 20.6646 11.272 20.7185 11.3489C20.7907 11.452 20.8164 11.6478 20.8164 12.0949C20.8164 12.613 20.7975 12.7251 20.6861 12.8667L20.5558 13.0323H13.0127C8.04567 13.0323 5.429 13.0106 5.35074 12.9687C5.20113 12.8887 5.10136 12.5368 5.10136 12.0894C5.10136 11.3526 4.97501 11.4915 7.81748 9.10555L10.4039 6.93464H10.9897H11.5756V5.58308V4.23153H11.9527H12.3299V3.28576C12.3299 2.36161 12.3263 2.33634 12.1733 2.18333L12.0168 2.0268L8.13437 2.04478L4.25202 2.06276L3.74082 2.26876C3.06498 2.54115 2.38619 3.02117 2.18044 3.37232L2.02039 3.6454V13.1187V22.5919L1.37604 22.574L0.731697 22.5561V13.0009V3.44574L0.930658 3.02582C1.37937 2.07866 2.49173 1.27458 3.89383 0.88389C4.36084 0.753701 4.5085 0.748546 8.11809 0.734968C10.1753 0.727298 11.9782 0.745529 12.1245 0.775514ZM17.0377 14.7514C17.3053 14.9052 17.3544 15.0838 17.3567 15.9125C17.3579 16.3382 17.3298 16.7411 17.2942 16.8076C17.2586 16.8741 17.142 16.9738 17.0351 17.029C16.7658 17.1683 16.4652 17.1008 16.2578 16.8543C16.0948 16.6606 16.0924 16.6442 16.1126 15.8519C16.1321 15.0852 16.1408 15.0387 16.2937 14.8861C16.4865 14.6935 16.8292 14.6315 17.0377 14.7514ZM13.2414 14.7366C13.5497 14.9139 13.5843 15.0288 13.5858 15.881C13.5865 16.3241 13.5581 16.7411 13.5224 16.8076C13.3421 17.1446 12.7933 17.1909 12.5128 16.8926C12.376 16.747 12.3592 16.6668 12.3395 16.0634C12.3163 15.3502 12.3818 15.0045 12.573 14.8315C12.7251 14.6939 13.0796 14.6435 13.2414 14.7366ZM9.51522 14.7616C9.60945 14.8145 9.71393 14.9089 9.74744 14.9715C9.78094 15.0342 9.81413 15.4423 9.82124 15.8787C9.83557 16.7647 9.78849 16.9105 9.44098 17.0544C9.19016 17.1583 8.89558 17.079 8.73541 16.8645C8.5995 16.6824 8.5939 16.6321 8.60949 15.7233C8.61974 15.1255 8.63665 15.0329 8.76244 14.8882C8.93833 14.6858 9.27804 14.6287 9.51522 14.7616ZM17.0377 17.9605C17.3059 18.1092 17.3544 18.2879 17.3553 19.13C17.356 19.7817 17.3376 19.9387 17.2476 20.0499C16.9862 20.3725 16.5622 20.3938 16.2846 20.0984C16.14 19.9444 16.1331 19.8987 16.1331 19.0884V18.2397L16.3384 18.0562C16.562 17.8564 16.7929 17.8248 17.0377 17.9605ZM13.287 17.9708C13.3812 18.0219 13.4873 18.118 13.5227 18.1842C13.6067 18.3411 13.6065 19.8566 13.5224 20.0136C13.3421 20.3507 12.7933 20.3969 12.5128 20.0986C12.376 19.9531 12.3592 19.8728 12.3395 19.2694C12.3271 18.8892 12.3481 18.5 12.3882 18.3662C12.5172 17.9355 12.9065 17.7643 13.287 17.9708ZM9.48171 17.9333C9.75328 18.0485 9.80779 18.231 9.82118 19.0699C9.83501 19.9358 9.79603 20.0776 9.50233 20.2295C9.27037 20.3495 9.16482 20.3488 8.92727 20.226C8.63219 20.0734 8.57504 19.8406 8.61641 18.9587C8.64752 18.295 8.67009 18.1725 8.78193 18.0609C8.9311 17.912 9.28093 17.8482 9.48171 17.9333ZM17.0377 21.1666C17.3044 21.3143 17.3544 21.4951 17.3567 22.3225C17.3593 23.195 17.3041 23.3509 16.9515 23.4672C16.6873 23.5544 16.4682 23.4998 16.2805 23.3001C16.1409 23.1515 16.1331 23.0982 16.1331 22.2944V21.4457L16.3384 21.2622C16.562 21.0625 16.7929 21.0308 17.0377 21.1666ZM13.287 21.1768C13.3812 21.2279 13.4873 21.324 13.5227 21.3902C13.6089 21.5511 13.606 23.0635 13.5193 23.2256C13.4279 23.3962 13.0509 23.5469 12.8342 23.4993C12.7384 23.4783 12.5928 23.3896 12.5107 23.3023C12.3764 23.1595 12.3591 23.076 12.3395 22.4754C12.3271 22.0952 12.3481 21.706 12.3882 21.5722C12.5172 21.1415 12.9065 20.9703 13.287 21.1768ZM9.48171 21.1423C9.75039 21.2505 9.80672 21.4374 9.82287 22.2732C9.83959 23.1383 9.80012 23.2815 9.50233 23.4355C9.27037 23.5555 9.16482 23.5548 8.92727 23.432C8.63168 23.2792 8.57511 23.047 8.61641 22.1576C8.65136 21.4054 8.65777 21.3773 8.82882 21.2304C9.00961 21.075 9.23812 21.0442 9.48171 21.1423Z" fill="#45AF31"/>
</svg>
