<svg width="33" height="24" viewBox="0 0 33 24" fill="none" xmlns="http://www.w3.org/2000/svg">
<path fill-rule="evenodd" clip-rule="evenodd" d="M16.9253 19.3303V22.5173L22.7545 19.2032L21.8647 19.7117C20.4664 19.4665 18.823 19.3303 16.9253 19.3303ZM10.5967 19.5936L15.7903 22.5173V19.3303C13.8926 19.3303 12.113 19.4756 10.5967 19.5936ZM25.7962 3.89465L21.7467 5.41101L17.57 6.80928V0.989161L21.7467 2.50547L25.7962 3.90374V3.89465ZM32.5244 15.0265L16.5439 23.9156H16.1717L0.318359 15.0265L0.463636 14.518H1.59861L9.33459 18.84C11.1142 18.5767 13.3933 18.3134 15.7994 18.3134V0.980072H16.9434V18.3134C19.3496 18.4586 21.5106 18.5767 23.2721 18.958L31.1261 14.518H32.3972L32.5244 15.0265Z" fill="#45AF31"/>
</svg>
