<svg width="32" height="24" viewBox="0 0 32 24" fill="none" xmlns="http://www.w3.org/2000/svg">
<path fill-rule="evenodd" clip-rule="evenodd" d="M20.1527 0.382645C20.5292 0.382645 20.8852 0.553763 21.1204 0.847716L23.7224 4.1002H28.1834C30.2366 4.1002 31.901 5.7646 31.901 7.81775V20.2096C31.901 22.2627 30.2366 23.9271 28.1834 23.9271H4.63894C2.58579 23.9271 0.921387 22.2627 0.921387 20.2096V7.81775C0.921387 5.7646 2.58579 4.1002 4.63894 4.1002H9.09876L11.702 0.847716C11.9371 0.553763 12.2932 0.382645 12.6696 0.382645H20.1527ZM16.4106 6.5786C12.4754 6.5786 9.28533 9.76871 9.28533 13.7039C9.28533 17.6391 12.4754 20.8292 16.4106 20.8292C20.3458 20.8292 23.5359 17.6391 23.5359 13.7039C23.5359 9.76871 20.3458 6.5786 16.4106 6.5786ZM16.4109 8.43733C19.3196 8.43733 21.6775 10.7952 21.6775 13.7039C21.6775 16.6125 19.3196 18.9704 16.4109 18.9704C13.5023 18.9704 11.1444 16.6125 11.1444 13.7039C11.1444 10.7952 13.5023 8.43733 16.4109 8.43733ZM25.085 6.26881C24.5717 6.26881 24.1556 6.68491 24.1556 7.1982C24.1556 7.71148 24.5717 8.12758 25.085 8.12758C25.5983 8.12758 26.0144 7.71148 26.0144 7.1982C26.0144 6.68491 25.5983 6.26881 25.085 6.26881ZM6.49757 1.62181C6.83976 1.62181 7.11716 1.89921 7.11716 2.2414V2.86099H4.6388V2.2414C4.6388 1.89921 4.9162 1.62181 5.25839 1.62181H6.49757Z" fill="white"/>
</svg>
